<svg id="Layer_1" data-name="Layer 1" xmlns="http://www.w3.org/2000/svg" viewBox="0 0 400 400"><defs><style>.cls-1{fill:#1ac6ff;}</style></defs><g id="g112"><path id="path114" class="cls-1" d="M136.13,140.79c-1.8,30.16-37.88,42.14-63,32.87-13.85-10.79-.35-35.53,6.39-47.91,14.45,14,39.65,20.89,43-8.48,1-8.6-.06-17.08-1.62-25.52-1-4.88,7-4.3,10.12-4.82,11.82,0,30.89-3.19,30.9,13.79,1.46,10.14-6.37,56.52,13.81,33.08,6.19-48.12-11.42-44.37,46.27-41.57-4.06,27.4,9.19,74.65,47.64,59.76C186.07,136,255.21,20.74,305,89.18c-78.14,7.19-27.42,74.17,7.54,17.67l36.85,23.48c-32.76,63.77-110.64,75-146.55,7.4-4.61,37.89-58.71,40.62-66.69,3.06"/></g><g id="g116"><path id="path118" class="cls-1" d="M341.31,223.91l0,0c9.14,15.55,20.26-5.18,10.64-14-10.13-10.12-17.11,5.63-10.62,14m41.95,23.69c-10.43,9-24.81,6.58-36.21.85,12.86,29.07-25.76,54.2-47.46,31.38.78,9.57,1.25,20.34-6,27.73-7.14-4.66-16.45.72-17.5,9-5.69,3.89-14.17.27-19.11-4.06-27.34-22.33-21.78-90.61-57.32-98.17-2.68-1.05-2.6-4.94-2-7.33,48.63-74.81,51.1,19.31,57.66,57.88,12.91,50.85,29.25-5.63,6.55-28.69,2.35-12.51,22.23-19.77,34-18.13a4.25,4.25,0,0,1,3.18,4.29c2.24,13.8,7.68,29.18,18.16,38.72,8.88-11.37-10.65-29-9.18-42.9,4-60.07,104.15-32.69,81.7,20.84A27.33,27.33,0,0,1,383.26,247.6Z"/></g><g id="g120"><path id="path122" class="cls-1" d="M139.2,211.69c9.47,1.19,21.43-.89,29.35,4.65,14.36,24.26,14.5,56.14,3.38,81.7C139.87,355.5,31.46,346,11.06,282.2c-1.58-5.45-4.48-11.64-4-17.14,8.87-4.69,18.07-10.47,28.35-10.92,2.37.11,3.31,1.05,3.28,3.43-1.07,21.11,10.12,42.79,32.13,47,42.38,10.33,78.81-24,58.45-66-8.74-23-26.28-26.41,9.94-26.88"/></g><g id="g124"><path id="path126" class="cls-1" d="M137.8,333.58c35.92,4.66,73.73-44.83,45.22-74.43,3.5-6.48,26.41-24,34.63-20,15.64,22,15.85,54.24,5.74,78.68-14,28.2-69.19,53.66-85.59,15.77"/></g><g id="g128"><path id="path130" class="cls-1" d="M103.6,230.39c2.68,7,13.57,23.8,7.43,29.52-15,9.24-29.89,18.54-44.89,27.75-4-9.12-7.5-19-8-29,3.64-4,12.43-1.69,17.71-3.55C48,241.56,63.74,182.93,94.76,205.94c6,8.24,3.27,19.59-2.62,27.1-5.09.24-14.86-3.61-16.35,4.85,6.85,9.77,24.08,2.63,27.81-7.5"/></g><g id="g132"><path id="path134" class="cls-1" d="M168.2,205c-8.41-.46-18.54,3.55-25.53-2.56-9.43-7-9.43-24.56,3.73-27.1,9.69-1.47,19.65-.86,29.44-1.07,25.08,3.78,18.31,37.67-7.63,30.91a1.09,1.09,0,0,0,0-.18"/></g><g id="g136"><path id="path138" class="cls-1" d="M26.83,194.59c10.12.6,21.32,15.93,9.63,22.16-9.52,3.49-25.21,2.39-29-8.75-.65-8.21.71-24,11.49-23.66,9.87.14,12.55.33,7.88,10.25"/></g><g id="g140"><path id="path142" class="cls-1" d="M356.79,162.69l-1-.13c1.82,1.38,6.68.59,9.18-1.41C348.2,150.47,359.5,123,375.25,143.3c9.4,10.32,11.19,39.31-10.5,33.17-7.47-.39-22.4-24.48-7.87-14l-.09.19"/></g><g id="g144"><path id="path146" class="cls-1" d="M281.48,328.16c2.13-25.24,30.45-12.81,27.59,7.14-3.51,19.55-29.62,10.57-27.32-7.09l-.27,0"/></g><g id="g148"><path id="path150" class="cls-1" d="M210.38,54.91c2.83-5.3,28-13.12,17.72-1.84-9.86,3.54-10.75,17.26-22.47,18.19-8.51.06-11-13.14-19.89-13.74-1.87-.3-2.41-1.34-1.46-3,6.25-9.38,19.63-8.18,26.1.36"/></g><g id="g152"><path id="path154" class="cls-1" d="M18.5,142l6.27-7.91-6.27-7.91c-2.15,2.71-4.2,5.31-6.27,7.91L18.5,142m0,5L8.3,134.05l10.2-12.88,10.2,12.88L18.5,146.92"/></g><path id="path156" class="cls-1" d="M392.75,331H322.07v-1.69h70.68Z"/><path id="path158" class="cls-1" d="M123.42,348.54H52.75v-1.65h70.67Z"/><g id="g160"><path id="path162" class="cls-1" d="M19,322.71l3.15,1.84-2.87,5,4.94,2.92-1.84,3.14-4.95-2.87-2.91,4.95-3.15-1.83,2.87-5-5-2.92,1.84-3.15,5,2.88,2.91-5"/></g><g id="g164"><path id="path166" class="cls-1" d="M58.72,92.48l-2.91,5-3.15-1.84c1-1.68,1.9-3.29,2.88-5l-4.95-2.9c.61-1,1.19-2,1.83-3.16l5,2.87,2.9-4.94,3.16,1.83-2.88,5,4.95,2.9c-.6,1-1.18,2-1.83,3.16l-5-2.87"/></g><path id="path168" class="cls-1" d="M16.75,92.13h3.54v25H16.75Z"/><path id="path170" class="cls-1" d="M16.74,150.81H20.3v24.93H16.74Z"/><path id="path172" class="cls-1" d="M264.42,331.05H230.07v-1.72h34.35Z"/><g id="g174"><path id="path176" class="cls-1" d="M46.11,83.32l-1.83,3.14-2.82-1.59c-.57,1-1.11,1.85-1.65,2.78l-3.14-1.83c.52-.93,1-1.83,1.6-2.81l-2.79-1.67,1.84-3.14,2.81,1.6L41.79,77l3.14,1.83-1.61,2.81,2.79,1.66"/></g><g id="g178"><path id="path180" class="cls-1" d="M76.13,103.71c-.63,1.07-1.21,2.05-1.84,3.14l-2.81-1.6c-.55.92-1.08,1.81-1.67,2.78l-3.14-1.83c.55-1,1.07-1.85,1.61-2.81l-2.78-1.67c.63-1.08,1.21-2.09,1.83-3.14,1,.56,1.84,1.06,2.82,1.61.54-.92,1.07-1.81,1.64-2.79l3.14,1.83c-.53,1-1.05,1.86-1.59,2.83l2.79,1.65"/></g></svg>